<svg width="422" height="88" viewBox="0 0 422 88" fill="none" xmlns="http://www.w3.org/2000/svg">
<g filter="url(#filter0_d_305_150)">
<path fill-rule="evenodd" clip-rule="evenodd" d="M362.474 16.7806C352.899 13.0544 344.153 4 333.879 4H6C4.89543 4 4 4.89543 4 6V82C4 83.1046 4.89542 84 5.99999 84H416C417.105 84 418 83.1046 418 82V6C418 4.89543 417.105 4 416 4H404.121C393.847 4 385.101 13.0544 375.526 16.7806C373.502 17.568 371.302 18 369 18C366.698 18 364.498 17.568 362.474 16.7806Z" fill="white"/>
</g>
<circle cx="368" cy="8" r="4" fill="#53B175"/>
<defs>
<filter id="filter0_d_305_150" x="0" y="0" width="422" height="88" filterUnits="userSpaceOnUse" color-interpolation-filters="sRGB">
<feFlood flood-opacity="0" result="BackgroundImageFix"/>
<feColorMatrix in="SourceAlpha" type="matrix" values="0 0 0 0 0 0 0 0 0 0 0 0 0 0 0 0 0 0 127 0" result="hardAlpha"/>
<feOffset/>
<feGaussianBlur stdDeviation="2"/>
<feComposite in2="hardAlpha" operator="out"/>
<feColorMatrix type="matrix" values="0 0 0 0 0 0 0 0 0 0 0 0 0 0 0 0 0 0 0.25 0"/>
<feBlend mode="normal" in2="BackgroundImageFix" result="effect1_dropShadow_305_150"/>
<feBlend mode="normal" in="SourceGraphic" in2="effect1_dropShadow_305_150" result="shape"/>
</filter>
</defs>
</svg>
