<svg width="32" height="31" viewBox="0 0 32 31" fill="none" xmlns="http://www.w3.org/2000/svg">
<rect width="31.283" height="30.7037" rx="8.68973" fill="white" fill-opacity="0.78"/>
<path d="M8.99541 15.1917L15.5153 21.5782L22.0351 15.1917C22.6116 14.627 22.9354 13.8612 22.9354 13.0627C22.9354 12.2641 22.6116 11.4983 22.0351 10.9336C21.7497 10.6541 21.4109 10.4323 21.0379 10.281C20.665 10.1297 20.2653 10.0518 19.8617 10.0518C19.0465 10.0518 18.2647 10.369 17.6882 10.9336L15.5153 13.0621L13.3423 10.9346C12.7644 10.3776 11.9852 10.0668 11.1744 10.0699C10.3636 10.073 9.58694 10.3899 9.01355 10.9514C8.44016 11.5129 8.11652 12.2737 8.11312 13.0679C8.10972 13.8621 8.42685 14.6254 8.99541 15.1917ZM14.791 9.51364L15.5153 10.2231L16.2396 9.51364C16.7145 9.04435 17.2794 8.67157 17.9017 8.4167C18.5241 8.16182 19.1917 8.02988 19.8663 8.02843C20.5409 8.02698 21.2091 8.15606 21.8326 8.40827C22.4562 8.66047 23.0227 9.03082 23.4997 9.49806C23.9767 9.96531 24.3548 10.5202 24.6122 11.131C24.8697 11.7418 25.0015 12.3963 25 13.0571C24.9985 13.7179 24.8638 14.3719 24.6036 14.9815C24.3434 15.5912 23.9629 16.1445 23.4838 16.6097L16.2406 23.7057C16.1455 23.799 16.0325 23.873 15.9081 23.9235C15.7837 23.974 15.6504 24 15.5158 24C15.3812 24 15.2478 23.974 15.1235 23.9235C14.9991 23.873 14.8861 23.799 14.791 23.7057L7.54678 16.6107C7.06119 16.147 6.67442 15.5934 6.40891 14.9822C6.14341 14.3709 6.00445 13.7141 6.00011 13.0498C5.99576 12.3856 6.12611 11.7271 6.3836 11.1125C6.64109 10.498 7.02058 9.93965 7.50008 9.4699C7.97957 9.00015 8.54951 8.62833 9.17685 8.37602C9.80418 8.12372 10.4764 7.99594 11.1546 8.0001C11.8327 8.00426 12.5032 8.14028 13.1273 8.40027C13.7513 8.66026 14.3165 9.03904 14.7899 9.51464L14.791 9.51364Z" fill="#53B175"/>
</svg>
