<svg width="364" height="67" viewBox="0 0 364 67" fill="none" xmlns="http://www.w3.org/2000/svg">
<rect width="364" height="67" rx="19" fill="#40AA54"/>
<path d="M58.8624 33.3509C58.8624 32.3616 58.7843 31.6397 58.6152 30.891H47.6201V35.3563H54.074C53.9439 36.466 53.2413 38.1372 51.6798 39.2602L51.6579 39.4097L55.1344 42.1768L55.3752 42.2015C57.5872 40.1025 58.8624 37.0141 58.8624 33.3509Z" fill="white"/>
<path d="M47.6202 45.116C50.782 45.116 53.4364 44.0464 55.3753 42.2015L51.6799 39.2601C50.691 39.9687 49.3638 40.4634 47.6202 40.4634C44.5234 40.4634 41.895 38.3644 40.958 35.4633L40.8207 35.4753L37.2058 38.3497L37.1586 38.4847C39.0843 42.4153 43.04 45.116 47.6202 45.116Z" fill="white"/>
<path d="M40.958 35.4633C40.7108 34.7146 40.5677 33.9124 40.5677 33.0835C40.5677 32.2546 40.7108 31.4524 40.945 30.7038L40.9384 30.5443L37.2783 27.6237L37.1585 27.6822C36.3648 29.3133 35.9094 31.145 35.9094 33.0835C35.9094 35.0221 36.3648 36.8536 37.1585 38.4847L40.958 35.4633" fill="white"/>
<path d="M47.6206 25.7037C49.8195 25.7037 51.3029 26.6796 52.1487 27.4952L55.4537 24.1796C53.4239 22.241 50.7824 21.0511 47.6206 21.0511C43.0403 21.0511 39.0847 23.7517 37.1589 27.6823L40.9454 30.7038C41.8953 27.8027 44.5237 25.7037 47.6206 25.7037" fill="white"/>
</svg>
