<svg width="215" height="135" viewBox="0 0 215 135" fill="none" xmlns="http://www.w3.org/2000/svg">
<g filter="url(#filter0_d_6_435)">
<path d="M108.37 49.0369L98.8614 72.2287M65.8862 12.4256L51.2872 48.0349C51.2872 48.0349 39.5285 70.925 60.2539 79.4231L65.8862 12.4256ZM131.464 39.3128L116.865 74.9206C116.865 74.9206 109.17 99.4769 88.4451 90.9808L131.464 39.3128ZM65.8415 12.4655L75.5074 35.5641L65.8415 12.4655ZM75.5074 35.5641L98.6747 25.8688L75.5074 35.5641ZM98.6747 25.8688L108.37 49.0369L98.6747 25.8688ZM108.37 49.0369L131.538 39.3423L108.37 49.0369ZM70.6745 24.0143L82.7581 18.9585L70.6745 24.0143ZM87.395 30.5884L82.5625 19.0396L87.395 30.5884ZM67.5124 16.4584L86.6698 8.44205L67.5124 16.4584ZM86.6698 8.44205L94.6644 27.5478L86.6698 8.44205ZM92.0777 18.5726L104.161 13.5153L92.0777 18.5726ZM108.799 25.1467L103.966 13.5976L108.799 25.1467ZM88.9153 11.0167L108.073 3L88.9153 11.0167ZM108.073 3L116.067 22.1046L108.073 3ZM103.519 37.4804L115.602 32.4235L103.519 37.4804ZM120.238 44.0545L115.408 32.5058L120.238 44.0545ZM100.356 29.9245L119.514 21.9082L100.356 29.9245ZM119.514 21.9082L127.509 41.0136L119.514 21.9082ZM60.2539 79.4227L86.8566 90.3293L60.2539 79.4227ZM75.5074 35.5641L65.9987 58.7559L75.5074 35.5641Z" stroke="#333333" stroke-width="4.15689" stroke-miterlimit="10" stroke-linecap="round" stroke-linejoin="round"/>
<path d="M175.691 52.2086C175.812 52.0091 175.112 52.6279 175.235 52.4155C179.484 45.0836 208.423 48.75 208.423 78.0814M155.105 52.4159C154.986 52.2373 155.224 52.6065 155.105 52.4159C150.493 45.084 119.075 48.7503 119.075 78.0818L155.105 52.4159Z" stroke="#333333" stroke-width="4.15689" stroke-miterlimit="10" stroke-linecap="round" stroke-linejoin="round"/>
<path d="M206.071 65.3394C207.547 69.772 208.346 74.5149 208.346 79.4449C208.346 102.504 190.861 121.478 168.425 123.833M124.378 100.564C120.995 94.2776 119.075 87.0854 119.075 79.4449C119.075 75.6551 119.548 71.976 120.437 68.463L124.378 100.564ZM125.815 103.041C125.31 102.231 124.831 101.405 124.378 100.564L125.815 103.041ZM168.425 123.833C166.876 123.997 165.304 124.08 163.711 124.08C162.328 124.08 158.319 124.464 156.968 124.34L168.425 123.833Z" stroke="#333333" stroke-width="4.15689" stroke-miterlimit="10" stroke-linecap="round" stroke-linejoin="round"/>
<path d="M170.111 44.636H160.769M160.005 50.6845C160.005 50.6845 142.322 55.955 140.24 63.2022C140.24 63.2022 161.547 57.2726 161.547 60.7774C161.547 64.2954 165.051 69.6719 165.051 69.6719L160.005 50.6845ZM170.111 50.6845C170.111 50.6845 187.781 55.955 189.876 63.2022C189.876 63.2022 168.569 57.2726 168.569 60.7774C168.569 64.2954 165.051 69.6719 165.051 69.6719L170.111 50.6845ZM160.769 50.6845V44.636V50.6845ZM170.111 50.6845V44.636V50.6845Z" stroke="#333333" stroke-width="4.15689" stroke-miterlimit="10" stroke-linecap="round" stroke-linejoin="round"/>
<path d="M192.098 102.067C188.526 108.125 182.522 112.578 175.429 114.081" stroke="#333333" stroke-width="4.15689" stroke-miterlimit="10" stroke-linecap="round" stroke-linejoin="round"/>
<path d="M51.4491 116.288L55.7862 89.106L56.2843 85.9832M128.222 104.519L164.072 116.084C164.072 116.084 167.559 118.148 167.135 120.802L128.222 104.519ZM55.7862 89.106C57.2956 79.6463 68.9748 85.3927 68.9748 85.3927L82.92 89.8995L94.9501 93.7801L128.222 104.519L55.7862 89.106ZM51.4491 116.288C49.9397 125.748 62.8273 123.921 62.8273 123.921L162.754 124.346C162.754 124.346 166.709 123.47 167.135 120.802L51.4491 116.288Z" stroke="#333333" stroke-width="4.15689" stroke-miterlimit="10" stroke-linecap="round" stroke-linejoin="round"/>
<path d="M52.8587 101.182C52.8587 101.182 47.6996 59.1678 7.08734 62.6555M82.9219 89.8863L82.9196 89.8995L81.286 100.14L82.9219 89.8863ZM94.952 93.7674L94.9501 93.7802L93.6212 102.108L94.952 93.7674ZM106.814 98.9555L105.996 104.082L106.814 98.9555ZM51.2468 101.751C47.5933 102.489 34.5693 106.176 35.8462 121.004L51.2468 101.751ZM52.1793 101.593C52.1793 101.593 51.8396 101.633 51.2747 101.743L52.1793 101.593ZM52.4394 101.635C52.4394 101.635 52.4464 101.676 52.4359 101.741C52.4786 103.229 52.5318 119.623 36.0931 121.043L52.4394 101.635Z" stroke="#333333" stroke-width="4.15689" stroke-miterlimit="10" stroke-linecap="round" stroke-linejoin="round"/>
<path d="M52.7717 101.728C52.7717 101.728 52.6506 101.736 52.4359 101.741C52.1824 101.741 51.7946 101.746 51.2748 101.743C51.2748 101.743 51.2616 101.741 51.2464 101.751C43.6575 101.648 10.0894 99.2013 7 63.2021" stroke="#333333" stroke-width="4.15689" stroke-miterlimit="10" stroke-linecap="round" stroke-linejoin="round"/>
</g>
<defs>
<filter id="filter0_d_6_435" x="0.921448" y="0.921013" width="213.58" height="133.522" filterUnits="userSpaceOnUse" color-interpolation-filters="sRGB">
<feFlood flood-opacity="0" result="BackgroundImageFix"/>
<feColorMatrix in="SourceAlpha" type="matrix" values="0 0 0 0 0 0 0 0 0 0 0 0 0 0 0 0 0 0 127 0" result="hardAlpha"/>
<feOffset dy="4"/>
<feGaussianBlur stdDeviation="2"/>
<feComposite in2="hardAlpha" operator="out"/>
<feColorMatrix type="matrix" values="0 0 0 0 0 0 0 0 0 0 0 0 0 0 0 0 0 0 0.25 0"/>
<feBlend mode="normal" in2="BackgroundImageFix" result="effect1_dropShadow_6_435"/>
<feBlend mode="normal" in="SourceGraphic" in2="effect1_dropShadow_6_435" result="shape"/>
</filter>
</defs>
</svg>
