<svg width="364" height="68" viewBox="0 0 364 68" fill="none" xmlns="http://www.w3.org/2000/svg">
<rect y="0.583618" width="364" height="67" rx="19" fill="#4A66AC"/>
<path d="M45.483 25.8801H47.6211V22.0538C47.2522 22.0017 45.9836 21.8843 44.5061 21.8843C41.4232 21.8843 39.3114 23.8767 39.3114 27.5386V30.9087H35.9094V35.1862H39.3114V45.9493H43.4824V35.1872H46.7467L47.2649 30.9097H43.4814V27.9627C43.4824 26.7264 43.8064 25.8801 45.483 25.8801Z" fill="white"/>
<path d="M72.774 35.718C72.774 39.48 75.528 42.108 79.038 42.108C81.756 42.108 83.916 40.758 84.852 38.346H82.89C82.206 39.84 80.874 40.686 79.038 40.686C76.41 40.686 74.448 38.778 74.448 35.718C74.448 32.64 76.41 30.732 79.038 30.732C80.874 30.732 82.206 31.578 82.89 33.09H84.852C83.916 30.66 81.756 29.292 79.038 29.292C75.528 29.292 72.774 31.956 72.774 35.718ZM96.6503 37.05C96.6503 33.936 94.4723 31.974 91.6643 31.974C88.8743 31.974 86.6783 33.936 86.6783 37.05C86.6783 40.182 88.8023 42.162 91.5923 42.162C94.4003 42.162 96.6503 40.182 96.6503 37.05ZM88.3523 37.05C88.3523 34.566 89.9183 33.396 91.6463 33.396C93.3383 33.396 94.9763 34.566 94.9763 37.05C94.9763 39.552 93.3023 40.722 91.5923 40.722C89.8823 40.722 88.3523 39.552 88.3523 37.05ZM106.022 42H107.642V36.186C107.642 33.36 105.896 31.956 103.61 31.956C102.278 31.956 101.09 32.514 100.442 33.54V32.136H98.804V42H100.442V36.546C100.442 34.422 101.594 33.378 103.268 33.378C104.924 33.378 106.022 34.404 106.022 36.42V42ZM110.678 39.3C110.678 41.28 111.668 42 113.414 42H114.89V40.614H113.684C112.676 40.614 112.316 40.272 112.316 39.3V33.486H114.89V32.136H112.316V29.652H110.678V32.136H109.4V33.486H110.678V39.3ZM116.874 42H118.512V32.136H116.874V42ZM117.72 30.534C118.314 30.534 118.8 30.048 118.8 29.418C118.8 28.788 118.314 28.302 117.72 28.302C117.09 28.302 116.604 28.788 116.604 29.418C116.604 30.048 117.09 30.534 117.72 30.534ZM128.522 42H130.142V36.186C130.142 33.36 128.396 31.956 126.11 31.956C124.778 31.956 123.59 32.514 122.942 33.54V32.136H121.304V42H122.942V36.546C122.942 34.422 124.094 33.378 125.768 33.378C127.424 33.378 128.522 34.404 128.522 36.42V42ZM141.566 32.136H139.928V37.554C139.928 39.678 138.794 40.722 137.102 40.722C135.446 40.722 134.348 39.696 134.348 37.698V32.136H132.728V37.914C132.728 40.74 134.51 42.144 136.778 42.144C138.092 42.144 139.298 41.568 139.928 40.542V42H141.566V32.136ZM148.525 33.36C150.217 33.36 151.657 34.422 151.639 36.348H145.411C145.591 34.422 146.923 33.36 148.525 33.36ZM153.133 38.958H151.369C151.009 40.02 150.073 40.776 148.597 40.776C146.923 40.776 145.519 39.678 145.393 37.68H153.277C153.313 37.338 153.331 37.05 153.331 36.69C153.331 33.99 151.459 31.974 148.597 31.974C145.717 31.974 143.719 33.936 143.719 37.05C143.719 40.182 145.789 42.162 148.597 42.162C151.045 42.162 152.629 40.758 153.133 38.958ZM162.218 42H163.91L166.286 34.17L168.662 42H170.354L173.432 32.136H171.812L169.58 40.434L167.186 32.136H165.512L163.064 40.416L160.796 32.136H159.122L162.218 42ZM175.058 42H176.696V32.136H175.058V42ZM175.904 30.534C176.498 30.534 176.984 30.048 176.984 29.418C176.984 28.788 176.498 28.302 175.904 28.302C175.274 28.302 174.788 28.788 174.788 29.418C174.788 30.048 175.274 30.534 175.904 30.534ZM179.848 39.3C179.848 41.28 180.838 42 182.584 42H184.06V40.614H182.854C181.846 40.614 181.486 40.272 181.486 39.3V33.486H184.06V32.136H181.486V29.652H179.848V32.136H178.57V33.486H179.848V39.3ZM186.044 42H187.682V36.546C187.682 34.422 188.834 33.378 190.508 33.378C192.164 33.378 193.262 34.404 193.262 36.42V42H194.882V36.186C194.882 33.36 193.136 31.956 190.94 31.956C189.554 31.956 188.33 32.514 187.682 33.558V28.68H186.044V42ZM202.357 42H203.995V36.348H208.423V35.016H203.995V30.786H209.449V29.454H202.357V42ZM210.815 37.032C210.815 40.092 212.849 42.162 215.477 42.162C217.295 42.162 218.573 41.226 219.167 40.164V42H220.823V32.136H219.167V33.936C218.591 32.91 217.331 31.974 215.495 31.974C212.849 31.974 210.815 33.954 210.815 37.032ZM219.167 37.05C219.167 39.372 217.619 40.722 215.819 40.722C214.019 40.722 212.489 39.354 212.489 37.032C212.489 34.71 214.019 33.396 215.819 33.396C217.619 33.396 219.167 34.764 219.167 37.05ZM222.979 37.05C222.979 40.182 224.977 42.162 227.785 42.162C230.233 42.162 231.835 40.794 232.339 38.832H230.575C230.215 40.074 229.243 40.776 227.785 40.776C225.985 40.776 224.653 39.498 224.653 37.05C224.653 34.638 225.985 33.36 227.785 33.36C229.243 33.36 230.233 34.116 230.575 35.304H232.339C231.835 33.234 230.233 31.974 227.785 31.974C224.977 31.974 222.979 33.954 222.979 37.05ZM238.719 33.36C240.411 33.36 241.851 34.422 241.833 36.348H235.605C235.785 34.422 237.117 33.36 238.719 33.36ZM243.327 38.958H241.563C241.203 40.02 240.267 40.776 238.791 40.776C237.117 40.776 235.713 39.678 235.587 37.68H243.471C243.507 37.338 243.525 37.05 243.525 36.69C243.525 33.99 241.653 31.974 238.791 31.974C235.911 31.974 233.913 33.936 233.913 37.05C233.913 40.182 235.983 42.162 238.791 42.162C241.239 42.162 242.823 40.758 243.327 38.958ZM247.325 33.972V28.68H245.687V42H247.325V40.182C247.937 41.262 249.215 42.162 251.015 42.162C253.661 42.162 255.695 40.092 255.695 37.032C255.695 33.954 253.679 31.974 251.015 31.974C249.269 31.974 247.955 32.874 247.325 33.972ZM254.021 37.032C254.021 39.354 252.491 40.722 250.673 40.722C248.891 40.722 247.325 39.372 247.325 37.05C247.325 34.764 248.891 33.396 250.673 33.396C252.491 33.396 254.021 34.71 254.021 37.032ZM267.211 37.05C267.211 33.936 265.033 31.974 262.225 31.974C259.435 31.974 257.239 33.936 257.239 37.05C257.239 40.182 259.363 42.162 262.153 42.162C264.961 42.162 267.211 40.182 267.211 37.05ZM258.913 37.05C258.913 34.566 260.479 33.396 262.207 33.396C263.899 33.396 265.537 34.566 265.537 37.05C265.537 39.552 263.863 40.722 262.153 40.722C260.443 40.722 258.913 39.552 258.913 37.05ZM278.725 37.05C278.725 33.936 276.547 31.974 273.739 31.974C270.949 31.974 268.753 33.936 268.753 37.05C268.753 40.182 270.877 42.162 273.667 42.162C276.475 42.162 278.725 40.182 278.725 37.05ZM270.427 37.05C270.427 34.566 271.993 33.396 273.721 33.396C275.413 33.396 277.051 34.566 277.051 37.05C277.051 39.552 275.377 40.722 273.667 40.722C271.957 40.722 270.427 39.552 270.427 37.05ZM280.878 42H282.516V37.644L286.386 42H288.618L283.956 37.05L288.6 32.136H286.314L282.516 36.51V28.68H280.878V42Z" fill="#FCFCFC"/>
</svg>
