<svg width="364" height="67" viewBox="0 0 364 67" fill="none" xmlns="http://www.w3.org/2000/svg">
<rect width="364" height="67" rx="19" fill="#53B175"/>
<path d="M58.8624 33.3509C58.8624 32.3616 58.7843 31.6397 58.6152 30.891H47.6201V35.3563H54.074C53.9439 36.466 53.2413 38.1372 51.6798 39.2602L51.6579 39.4097L55.1344 42.1768L55.3752 42.2015C57.5872 40.1025 58.8624 37.0141 58.8624 33.3509Z" fill="white"/>
<path d="M47.6202 45.116C50.782 45.116 53.4364 44.0464 55.3753 42.2015L51.6799 39.2601C50.691 39.9687 49.3638 40.4634 47.6202 40.4634C44.5234 40.4634 41.895 38.3644 40.958 35.4633L40.8207 35.4753L37.2058 38.3497L37.1586 38.4847C39.0843 42.4153 43.04 45.116 47.6202 45.116Z" fill="white"/>
<path d="M40.958 35.4633C40.7108 34.7146 40.5677 33.9124 40.5677 33.0835C40.5677 32.2546 40.7108 31.4524 40.945 30.7038L40.9384 30.5443L37.2783 27.6237L37.1585 27.6822C36.3648 29.3133 35.9094 31.145 35.9094 33.0835C35.9094 35.0221 36.3648 36.8536 37.1585 38.4847L40.958 35.4633Z" fill="white"/>
<path d="M47.6206 25.7037C49.8195 25.7037 51.3029 26.6796 52.1487 27.4952L55.4537 24.1796C53.4239 22.241 50.7824 21.0511 47.6206 21.0511C43.0403 21.0511 39.0847 23.7517 37.1589 27.6823L40.9454 30.7038C41.8953 27.8027 44.5237 25.7037 47.6206 25.7037Z" fill="white"/>
<path d="M85.774 34.718C85.774 38.48 88.528 41.108 92.038 41.108C94.756 41.108 96.916 39.758 97.852 37.346H95.89C95.206 38.84 93.874 39.686 92.038 39.686C89.41 39.686 87.448 37.778 87.448 34.718C87.448 31.64 89.41 29.732 92.038 29.732C93.874 29.732 95.206 30.578 95.89 32.09H97.852C96.916 29.66 94.756 28.292 92.038 28.292C88.528 28.292 85.774 30.956 85.774 34.718ZM109.65 36.05C109.65 32.936 107.472 30.974 104.664 30.974C101.874 30.974 99.6783 32.936 99.6783 36.05C99.6783 39.182 101.802 41.162 104.592 41.162C107.4 41.162 109.65 39.182 109.65 36.05ZM101.352 36.05C101.352 33.566 102.918 32.396 104.646 32.396C106.338 32.396 107.976 33.566 107.976 36.05C107.976 38.552 106.302 39.722 104.592 39.722C102.882 39.722 101.352 38.552 101.352 36.05ZM119.022 41H120.642V35.186C120.642 32.36 118.896 30.956 116.61 30.956C115.278 30.956 114.09 31.514 113.442 32.54V31.136H111.804V41H113.442V35.546C113.442 33.422 114.594 32.378 116.268 32.378C117.924 32.378 119.022 33.404 119.022 35.42V41ZM123.678 38.3C123.678 40.28 124.668 41 126.414 41H127.89V39.614H126.684C125.676 39.614 125.316 39.272 125.316 38.3V32.486H127.89V31.136H125.316V28.652H123.678V31.136H122.4V32.486H123.678V38.3ZM129.874 41H131.512V31.136H129.874V41ZM130.72 29.534C131.314 29.534 131.8 29.048 131.8 28.418C131.8 27.788 131.314 27.302 130.72 27.302C130.09 27.302 129.604 27.788 129.604 28.418C129.604 29.048 130.09 29.534 130.72 29.534ZM141.522 41H143.142V35.186C143.142 32.36 141.396 30.956 139.11 30.956C137.778 30.956 136.59 31.514 135.942 32.54V31.136H134.304V41H135.942V35.546C135.942 33.422 137.094 32.378 138.768 32.378C140.424 32.378 141.522 33.404 141.522 35.42V41ZM154.566 31.136H152.928V36.554C152.928 38.678 151.794 39.722 150.102 39.722C148.446 39.722 147.348 38.696 147.348 36.698V31.136H145.728V36.914C145.728 39.74 147.51 41.144 149.778 41.144C151.092 41.144 152.298 40.568 152.928 39.542V41H154.566V31.136ZM161.525 32.36C163.217 32.36 164.657 33.422 164.639 35.348H158.411C158.591 33.422 159.923 32.36 161.525 32.36ZM166.133 37.958H164.369C164.009 39.02 163.073 39.776 161.597 39.776C159.923 39.776 158.519 38.678 158.393 36.68H166.277C166.313 36.338 166.331 36.05 166.331 35.69C166.331 32.99 164.459 30.974 161.597 30.974C158.717 30.974 156.719 32.936 156.719 36.05C156.719 39.182 158.789 41.162 161.597 41.162C164.045 41.162 165.629 39.758 166.133 37.958ZM175.218 41H176.91L179.286 33.17L181.662 41H183.354L186.432 31.136H184.812L182.58 39.434L180.186 31.136H178.512L176.064 39.416L173.796 31.136H172.122L175.218 41ZM188.058 41H189.696V31.136H188.058V41ZM188.904 29.534C189.498 29.534 189.984 29.048 189.984 28.418C189.984 27.788 189.498 27.302 188.904 27.302C188.274 27.302 187.788 27.788 187.788 28.418C187.788 29.048 188.274 29.534 188.904 29.534ZM192.848 38.3C192.848 40.28 193.838 41 195.584 41H197.06V39.614H195.854C194.846 39.614 194.486 39.272 194.486 38.3V32.486H197.06V31.136H194.486V28.652H192.848V31.136H191.57V32.486H192.848V38.3ZM199.044 41H200.682V35.546C200.682 33.422 201.834 32.378 203.508 32.378C205.164 32.378 206.262 33.404 206.262 35.42V41H207.882V35.186C207.882 32.36 206.136 30.956 203.94 30.956C202.554 30.956 201.33 31.514 200.682 32.558V27.68H199.044V41ZM221.045 28.31C217.517 28.31 214.745 30.956 214.745 34.718C214.745 38.48 217.517 41.108 221.045 41.108C224.447 41.108 226.913 38.606 227.201 35.492V34.232H220.451V35.564H225.455C225.203 38.048 223.511 39.632 221.045 39.632C218.399 39.632 216.419 37.724 216.419 34.718C216.419 31.694 218.399 29.786 221.045 29.786C222.809 29.786 224.177 30.632 224.861 32.09H226.823C225.887 29.678 223.691 28.31 221.045 28.31ZM238.726 36.05C238.726 32.936 236.548 30.974 233.74 30.974C230.95 30.974 228.754 32.936 228.754 36.05C228.754 39.182 230.878 41.162 233.668 41.162C236.476 41.162 238.726 39.182 238.726 36.05ZM230.428 36.05C230.428 33.566 231.994 32.396 233.722 32.396C235.414 32.396 237.052 33.566 237.052 36.05C237.052 38.552 235.378 39.722 233.668 39.722C231.958 39.722 230.428 38.552 230.428 36.05ZM250.24 36.05C250.24 32.936 248.062 30.974 245.254 30.974C242.464 30.974 240.268 32.936 240.268 36.05C240.268 39.182 242.392 41.162 245.182 41.162C247.99 41.162 250.24 39.182 250.24 36.05ZM241.942 36.05C241.942 33.566 243.508 32.396 245.236 32.396C246.928 32.396 248.566 33.566 248.566 36.05C248.566 38.552 246.892 39.722 245.182 39.722C243.472 39.722 241.942 38.552 241.942 36.05ZM251.782 36.032C251.782 39.092 253.816 41.162 256.462 41.162C258.262 41.162 259.54 40.208 260.134 39.146V41.216C260.134 43.322 258.82 44.438 257.074 44.438C255.454 44.438 254.284 43.628 253.924 42.44H252.304C252.628 44.546 254.482 45.86 257.074 45.86C259.972 45.86 261.79 43.934 261.79 41.216V31.136H260.134V32.936C259.558 31.874 258.262 30.974 256.462 30.974C253.816 30.974 251.782 32.954 251.782 36.032ZM260.134 36.05C260.134 38.372 258.586 39.722 256.786 39.722C254.986 39.722 253.456 38.354 253.456 36.032C253.456 33.71 254.986 32.396 256.786 32.396C258.586 32.396 260.134 33.764 260.134 36.05ZM264.558 41H266.196V27.68H264.558V41ZM273.182 32.36C274.874 32.36 276.314 33.422 276.296 35.348H270.068C270.248 33.422 271.58 32.36 273.182 32.36ZM277.79 37.958H276.026C275.666 39.02 274.73 39.776 273.254 39.776C271.58 39.776 270.176 38.678 270.05 36.68H277.934C277.97 36.338 277.988 36.05 277.988 35.69C277.988 32.99 276.116 30.974 273.254 30.974C270.374 30.974 268.376 32.936 268.376 36.05C268.376 39.182 270.446 41.162 273.254 41.162C275.702 41.162 277.286 39.758 277.79 37.958Z" fill="#FCFCFC"/>
</svg>
