<svg width="361" height="211" viewBox="0 0 361 211" fill="none" xmlns="http://www.w3.org/2000/svg">
<g clip-path="url(#clip0_85_363)">
<path d="M25.1254 175.995H45.9324V207.074C42.7917 208.47 39.4547 209.473 35.9215 210.084C32.3882 210.695 28.1134 211 23.0971 211C16.8593 211 12.1265 210.149 8.89858 208.448C5.67067 206.703 3.38059 203.715 2.02835 199.484C0.676118 195.253 0 189.103 0 181.033C0 173.05 0.763359 166.921 2.29008 162.647C3.77317 158.415 6.34678 155.406 10.0109 153.617C13.675 151.872 18.9531 151 25.8451 151C28.855 151 32.0829 151.218 35.5289 151.654C39.0185 152.134 41.5921 152.679 43.2497 153.29L41.2214 166.115C39.0404 165.547 36.5104 165.111 33.6314 164.806C30.7525 164.501 28.3315 164.348 26.3686 164.348C22.9662 164.348 20.6107 164.806 19.3021 165.722C17.9935 166.638 17.3392 168.361 17.3392 170.891V197.979H30.8179V187.838H25.1254V175.995ZM62.5518 163.824L67.132 170.106C71.2323 166.136 75.7034 163.585 80.5453 162.45L81.5267 178.088C79.9564 178.35 78.0371 178.917 75.7688 179.79C73.5005 180.662 71.8212 181.513 70.7307 182.341V209.626H54.6347V163.824H62.5518ZM108.746 210.869C103.206 210.869 98.7568 210.062 95.398 208.448C92.0393 206.791 89.5529 204.195 87.9389 200.662C86.3686 197.172 85.5834 192.527 85.5834 186.725C85.5834 180.924 86.3686 176.256 87.9389 172.723C89.5529 169.146 92.0393 166.551 95.398 164.937C98.7568 163.323 103.206 162.516 108.746 162.516C114.373 162.516 118.866 163.323 122.225 164.937C125.627 166.551 128.113 169.146 129.684 172.723C131.254 176.256 132.039 180.924 132.039 186.725C132.039 192.527 131.232 197.172 129.618 200.662C128.048 204.195 125.562 206.791 122.159 208.448C118.757 210.062 114.286 210.869 108.746 210.869ZM102.857 198.634H111.036C112.519 198.634 113.501 198.459 113.98 198.11C114.504 197.761 114.766 197.107 114.766 196.147V174.817H106.652C105.169 174.817 104.166 174.991 103.642 175.34C103.119 175.646 102.857 176.3 102.857 177.303V198.634ZM158.604 210.869C153.893 210.869 150.076 210.062 147.154 208.448C144.275 206.834 142.159 204.261 140.807 200.727C139.455 197.194 138.779 192.527 138.779 186.725C138.779 180.924 139.455 176.256 140.807 172.723C142.159 169.146 144.275 166.551 147.154 164.937C149.989 163.323 153.806 162.516 158.604 162.516C161.265 162.516 164.122 162.712 167.176 163.105C170.229 163.454 172.519 163.868 174.046 164.348L172.672 175.733C169.706 174.86 166.39 174.424 162.726 174.424C160.284 174.424 158.561 174.969 157.557 176.06C156.51 177.107 155.987 178.895 155.987 181.425V198.437C157.47 198.786 159.433 198.961 161.876 198.961C165.802 198.961 169.706 198.176 173.588 196.605L175.093 207.859C170.12 209.866 164.624 210.869 158.604 210.869ZM204.471 198.961C209.662 198.961 215.071 198.176 220.698 196.605L222.726 207.859C216.663 209.866 209.989 210.869 202.704 210.869C194.678 210.869 188.877 208.993 185.3 205.242C181.767 201.491 180 195.318 180 186.725C180 178.176 181.832 172.003 185.496 168.208C189.117 164.413 194.984 162.516 203.097 162.516C208.55 162.516 212.759 162.974 215.725 163.89C218.648 164.806 220.742 166.333 222.007 168.47C223.272 170.607 223.904 173.661 223.904 177.63C223.904 181.556 223.097 184.588 221.483 186.725C219.913 188.863 217.23 190.389 213.435 191.305C209.64 192.221 204.275 192.679 197.339 192.679V198.437C199.04 198.786 201.418 198.961 204.471 198.961ZM203.948 174.424C201.418 174.424 199.695 174.708 198.779 175.275C197.819 175.798 197.339 176.823 197.339 178.35V184.239H202.704C205.234 184.239 206.957 183.955 207.874 183.388C208.833 182.778 209.313 181.687 209.313 180.117V174.424H203.948ZM241.636 163.824L246.216 170.106C250.316 166.136 254.787 163.585 259.629 162.45L260.611 178.088C259.04 178.35 257.121 178.917 254.853 179.79C252.585 180.662 250.905 181.513 249.815 182.341V209.626H233.719V163.824H241.636ZM289.139 198.961C294.329 198.961 299.716 198.176 305.3 196.605L307.328 207.859C301.309 209.866 294.657 210.869 287.372 210.869C279.302 210.869 273.501 208.993 269.967 205.242C266.434 201.491 264.667 195.318 264.667 186.725C264.667 178.176 266.478 172.003 270.098 168.208C273.719 164.413 279.607 162.516 287.764 162.516C293.173 162.516 297.361 162.974 300.327 163.89C303.293 164.806 305.409 166.333 306.674 168.47C307.895 170.607 308.506 173.661 308.506 177.63C308.506 181.556 307.721 184.588 306.151 186.725C304.58 188.863 301.898 190.389 298.103 191.305C294.308 192.221 288.92 192.679 281.941 192.679V198.437C283.686 198.786 286.085 198.961 289.139 198.961ZM288.55 174.424C286.063 174.424 284.34 174.708 283.381 175.275C282.421 175.798 281.941 176.823 281.941 178.35V184.239H287.372C289.858 184.239 291.581 183.955 292.541 183.388C293.501 182.778 293.98 181.687 293.98 180.117V174.424H288.55ZM340.698 198.961C345.889 198.961 351.298 198.176 356.925 196.605L358.888 207.859C352.868 209.866 346.216 210.869 338.931 210.869C330.862 210.869 325.06 208.993 321.527 205.242C317.993 201.491 316.227 195.318 316.227 186.725C316.227 178.176 318.037 172.003 321.658 168.208C325.322 164.413 331.21 162.516 339.324 162.516C344.733 162.516 348.92 162.974 351.887 163.89C354.853 164.806 356.968 166.333 358.233 168.47C359.498 170.607 360.131 173.661 360.131 177.63C360.131 181.556 359.324 184.588 357.71 186.725C356.14 188.863 353.457 190.389 349.662 191.305C345.867 192.221 340.502 192.679 333.566 192.679V198.437C335.267 198.786 337.645 198.961 340.698 198.961ZM340.109 174.424C337.623 174.424 335.9 174.708 334.94 175.275C334.024 175.798 333.566 176.823 333.566 178.35V184.239H338.931C341.461 184.239 343.184 183.955 344.1 183.388C345.06 182.778 345.54 181.687 345.54 180.117V174.424H340.109Z" fill="white"/>
</g>
<path d="M180.37 49.0369L170.861 72.2287M137.886 12.4256L123.287 48.0349C123.287 48.0349 111.528 70.925 132.254 79.4231L137.886 12.4256ZM203.464 39.3128L188.865 74.9206C188.865 74.9206 181.17 99.4769 160.445 90.9808L203.464 39.3128ZM137.842 12.4655L147.507 35.5641L137.842 12.4655ZM147.507 35.5641L170.675 25.8688L147.507 35.5641ZM170.675 25.8688L180.37 49.0369L170.675 25.8688ZM180.37 49.0369L203.538 39.3423L180.37 49.0369ZM142.674 24.0143L154.758 18.9585L142.674 24.0143ZM159.395 30.5884L154.562 19.0396L159.395 30.5884ZM139.512 16.4584L158.67 8.44205L139.512 16.4584ZM158.67 8.44205L166.664 27.5478L158.67 8.44205ZM164.078 18.5726L176.161 13.5153L164.078 18.5726ZM180.799 25.1467L175.966 13.5976L180.799 25.1467ZM160.915 11.0167L180.073 3L160.915 11.0167ZM180.073 3L188.067 22.1046L180.073 3ZM175.519 37.4804L187.602 32.4235L175.519 37.4804ZM192.238 44.0545L187.408 32.5058L192.238 44.0545ZM172.356 29.9245L191.514 21.9082L172.356 29.9245ZM191.514 21.9082L199.509 41.0136L191.514 21.9082ZM132.254 79.4227L158.857 90.3293L132.254 79.4227ZM147.507 35.5641L137.999 58.7559L147.507 35.5641Z" stroke="white" stroke-width="4.15689" stroke-miterlimit="10" stroke-linecap="round" stroke-linejoin="round"/>
<path d="M247.691 52.2086C247.812 52.0091 247.112 52.6279 247.235 52.4155C251.484 45.0836 280.423 48.75 280.423 78.0814M227.105 52.4159C226.987 52.2373 227.224 52.6065 227.105 52.4159C222.493 45.084 191.075 48.7503 191.075 78.0818L227.105 52.4159Z" stroke="white" stroke-width="4.15689" stroke-miterlimit="10" stroke-linecap="round" stroke-linejoin="round"/>
<path d="M278.071 65.3394C279.547 69.772 280.346 74.5149 280.346 79.4449C280.346 102.504 262.861 121.478 240.425 123.833M196.378 100.564C192.995 94.2776 191.075 87.0854 191.075 79.4449C191.075 75.6551 191.548 71.976 192.437 68.463L196.378 100.564ZM197.815 103.041C197.31 102.231 196.831 101.405 196.378 100.564L197.815 103.041ZM240.425 123.833C238.876 123.997 237.304 124.08 235.711 124.08C234.328 124.08 230.319 124.464 228.968 124.34L240.425 123.833Z" stroke="white" stroke-width="4.15689" stroke-miterlimit="10" stroke-linecap="round" stroke-linejoin="round"/>
<path d="M242.111 44.636H232.769M232.005 50.6845C232.005 50.6845 214.322 55.955 212.24 63.2022C212.24 63.2022 233.547 57.2726 233.547 60.7774C233.547 64.2954 237.051 69.6719 237.051 69.6719L232.005 50.6845ZM242.111 50.6845C242.111 50.6845 259.781 55.955 261.876 63.2022C261.876 63.2022 240.569 57.2726 240.569 60.7774C240.569 64.2954 237.051 69.6719 237.051 69.6719L242.111 50.6845ZM232.769 50.6845V44.636V50.6845ZM242.111 50.6845V44.636V50.6845Z" stroke="white" stroke-width="4.15689" stroke-miterlimit="10" stroke-linecap="round" stroke-linejoin="round"/>
<path d="M264.098 102.067C260.526 108.125 254.522 112.578 247.429 114.081" stroke="white" stroke-width="4.15689" stroke-miterlimit="10" stroke-linecap="round" stroke-linejoin="round"/>
<path d="M123.449 116.288L127.786 89.106L128.284 85.9832M200.222 104.519L236.072 116.084C236.072 116.084 239.559 118.148 239.135 120.802L200.222 104.519ZM127.786 89.106C129.296 79.6463 140.975 85.3927 140.975 85.3927L154.92 89.8995L166.95 93.7801L200.222 104.519L127.786 89.106ZM123.449 116.288C121.94 125.748 134.827 123.921 134.827 123.921L234.754 124.346C234.754 124.346 238.709 123.47 239.135 120.802L123.449 116.288Z" stroke="white" stroke-width="4.15689" stroke-miterlimit="10" stroke-linecap="round" stroke-linejoin="round"/>
<path d="M124.859 101.182C124.859 101.182 119.7 59.1678 79.0873 62.6555M154.922 89.8863L154.92 89.8995L153.286 100.14L154.922 89.8863ZM166.952 93.7674L166.95 93.7802L165.621 102.108L166.952 93.7674ZM178.814 98.9555L177.996 104.082L178.814 98.9555ZM123.247 101.751C119.593 102.489 106.569 106.176 107.846 121.004L123.247 101.751ZM124.179 101.593C124.179 101.593 123.84 101.633 123.275 101.743L124.179 101.593ZM124.439 101.635C124.439 101.635 124.446 101.676 124.436 101.741C124.479 103.229 124.532 119.623 108.093 121.043L124.439 101.635Z" stroke="white" stroke-width="4.15689" stroke-miterlimit="10" stroke-linecap="round" stroke-linejoin="round"/>
<path d="M124.772 101.728C124.772 101.728 124.651 101.736 124.436 101.741C124.182 101.741 123.795 101.746 123.275 101.743C123.275 101.743 123.262 101.741 123.246 101.751C115.658 101.648 82.0894 99.2012 79 63.2021" stroke="white" stroke-width="4.15689" stroke-miterlimit="10" stroke-linecap="round" stroke-linejoin="round"/>
<defs>
<clipPath id="clip0_85_363">
<rect width="360.131" height="60" fill="white" transform="translate(0 151)"/>
</clipPath>
</defs>
</svg>
