<svg width="31" height="22" viewBox="0 0 31 22" fill="none" xmlns="http://www.w3.org/2000/svg">
<path d="M25.8 21.5C24.9495 21.5 24.1182 21.2478 23.4111 20.7753C22.7039 20.3028 22.1528 19.6313 21.8273 18.8455C21.5019 18.0598 21.4167 17.1952 21.5826 16.3611C21.7485 15.527 22.1581 14.7608 22.7594 14.1594C23.3608 13.5581 24.127 13.1485 24.9611 12.9826C25.7952 12.8167 26.6598 12.9019 27.4455 13.2273C28.2313 13.5528 28.9028 14.1039 29.3753 14.8111C29.8478 15.5182 30.1 16.3495 30.1 17.2C30.0986 18.34 29.6451 19.4329 28.839 20.239C28.0329 21.0451 26.94 21.4986 25.8 21.5ZM25.8 15.05C25.3748 15.05 24.9591 15.1761 24.6055 15.4123C24.252 15.6486 23.9764 15.9844 23.8137 16.3772C23.6509 16.7701 23.6084 17.2024 23.6913 17.6194C23.7743 18.0365 23.979 18.4196 24.2797 18.7203C24.5804 19.021 24.9635 19.2257 25.3806 19.3087C25.7976 19.3916 26.2299 19.3491 26.6228 19.1863C27.0156 19.0236 27.3514 18.748 27.5877 18.3945C27.8239 18.0409 27.95 17.6252 27.95 17.2C27.9494 16.63 27.7227 16.0834 27.3197 15.6804C26.9166 15.2773 26.37 15.0506 25.8 15.05Z" fill="#53B175"/>
<path d="M23.65 0H17.2V2.15H23.65C23.9351 2.15 24.2085 2.26326 24.4101 2.46486C24.6117 2.66646 24.725 2.93989 24.725 3.225C24.725 3.51011 24.6117 3.78354 24.4101 3.98514C24.2085 4.18674 23.9351 4.3 23.65 4.3H20.425C20.266 4.3001 20.109 4.33545 19.9654 4.40353C19.8217 4.4716 19.6949 4.57069 19.5941 4.69366C19.4934 4.81664 19.4211 4.96043 19.3826 5.11468C19.3441 5.26893 19.3403 5.4298 19.3715 5.5857L20.3648 10.5533L17.6665 15.05H14.7748L12.0099 5.83187C11.8788 5.38791 11.6071 4.99851 11.2357 4.72225C10.8642 4.446 10.4131 4.29782 9.9502 4.3H4.3V6.45H9.9502L10.5952 8.6H5.375C3.94998 8.60171 2.58382 9.16855 1.57619 10.1762C0.568548 11.1838 0.00170695 12.55 0 13.975V16.125C0 16.4101 0.113259 16.6835 0.31486 16.8851C0.516462 17.0867 0.789892 17.2 1.075 17.2H2.15C2.15 18.3404 2.60303 19.4342 3.40944 20.2406C4.21585 21.047 5.30957 21.5 6.45 21.5C7.59043 21.5 8.68415 21.047 9.49056 20.2406C10.297 19.4342 10.75 18.3404 10.75 17.2H18.275C18.4605 17.2 18.6428 17.1519 18.8043 17.0606C18.9657 16.9692 19.1007 16.8376 19.1963 16.6786L22.4213 11.3036C22.5589 11.0742 22.6061 10.8017 22.5535 10.5393L21.7365 6.45H23.65C24.5053 6.45 25.3256 6.11022 25.9304 5.50542C26.5352 4.90061 26.875 4.08032 26.875 3.225C26.875 2.36968 26.5352 1.54938 25.9304 0.94458C25.3256 0.339775 24.5053 1.80246e-08 23.65 0ZM6.45 19.35C5.87996 19.3494 5.33343 19.1227 4.93035 18.7197C4.52727 18.3166 4.30057 17.77 4.3 17.2H8.6C8.59943 17.77 8.37273 18.3166 7.96965 18.7197C7.56657 19.1227 7.02004 19.3494 6.45 19.35ZM2.15 15.05V13.975C2.15085 13.1199 2.4909 12.3001 3.09552 11.6955C3.70014 11.0909 4.51994 10.7509 5.375 10.75H11.2402L12.5302 15.05H2.15Z" fill="#53B175"/>
</svg>
