<svg width="422" height="88" viewBox="0 0 422 88" fill="none" xmlns="http://www.w3.org/2000/svg">
<g filter="url(#filter0_d_305_98)">
<path fill-rule="evenodd" clip-rule="evenodd" d="M42.4743 16.7806C32.8992 13.0544 24.1534 4 13.8788 4H6C4.89543 4 4 4.89543 4 6V82C4 83.1046 4.89542 84 5.99999 84H416C417.105 84 418 83.1046 418 82V6C418 4.89543 417.105 4 416 4H84.1212C73.8466 4 65.1008 13.0544 55.5257 16.7806C53.5025 17.568 51.3017 18 49 18C46.6983 18 44.4975 17.568 42.4743 16.7806Z" fill="white"/>
</g>
<circle cx="49" cy="8" r="4" fill="#53B175"/>
<defs>
<filter id="filter0_d_305_98" x="0" y="0" width="422" height="88" filterUnits="userSpaceOnUse" color-interpolation-filters="sRGB">
<feFlood flood-opacity="0" result="BackgroundImageFix"/>
<feColorMatrix in="SourceAlpha" type="matrix" values="0 0 0 0 0 0 0 0 0 0 0 0 0 0 0 0 0 0 127 0" result="hardAlpha"/>
<feOffset/>
<feGaussianBlur stdDeviation="2"/>
<feComposite in2="hardAlpha" operator="out"/>
<feColorMatrix type="matrix" values="0 0 0 0 0 0 0 0 0 0 0 0 0 0 0 0 0 0 0.25 0"/>
<feBlend mode="normal" in2="BackgroundImageFix" result="effect1_dropShadow_305_98"/>
<feBlend mode="normal" in="SourceGraphic" in2="effect1_dropShadow_305_98" result="shape"/>
</filter>
</defs>
</svg>
