<svg width="23" height="24" viewBox="0 0 23 24" fill="none" xmlns="http://www.w3.org/2000/svg">
<path d="M8.13533 15.2182C3.989 15.7642 1 17.2867 1 19.0833C1 21.3385 5.7005 23.1667 11.5 23.1667C17.2995 23.1667 22 21.3385 22 19.0833C22 17.2867 19.011 15.7642 14.8647 15.2182" stroke="white" stroke-width="1.5" stroke-linecap="round" stroke-linejoin="round"/>
<path fill-rule="evenodd" clip-rule="evenodd" d="M18.5 7.80517C18.5 4.04733 15.3663 1 11.5 1C7.63367 1 4.5 4.04733 4.5 7.80517C4.5 12.9093 11.5 18.5 11.5 18.5C11.5 18.5 18.5 12.9093 18.5 7.80517Z" stroke="white" stroke-width="1.5" stroke-linecap="round" stroke-linejoin="round"/>
<path d="M13.1499 6.35009C14.0612 7.26132 14.0612 8.7387 13.1499 9.64993C12.2387 10.5612 10.7612 10.5612 9.85007 9.64993C8.93881 8.7387 8.93881 7.26132 9.85007 6.35009C10.7612 5.43887 12.2387 5.43887 13.1499 6.35009Z" stroke="white" stroke-width="1.5" stroke-linecap="round" stroke-linejoin="round"/>
</svg>
