<svg width="21" height="23" viewBox="0 0 21 23" fill="none" xmlns="http://www.w3.org/2000/svg">
<path d="M17.2522 16.2069L15.4788 14.397V9.93728C15.5024 8.2812 14.9348 6.67239 13.8809 5.40789C12.8269 4.14339 11.3578 3.30861 9.74475 3.05769C8.8086 2.93257 7.85691 3.01151 6.9532 3.28926C6.04948 3.567 5.21452 4.03716 4.50402 4.66836C3.79352 5.29956 3.22383 6.07729 2.83295 6.94965C2.44207 7.82202 2.23899 8.76896 2.23727 9.72729V14.397L0.463844 16.2069C0.241089 16.4368 0.09003 16.7281 0.0295531 17.0446C-0.0309238 17.3612 0.00186408 17.6887 0.123818 17.9864C0.245771 18.2841 0.45148 18.5387 0.715228 18.7184C0.978975 18.8981 1.28906 18.9949 1.60672 18.9967H4.9171V19.3367C4.96312 20.3519 5.40376 21.3071 6.14247 21.9931C6.88117 22.6791 7.85769 23.0399 8.85804 22.9965C9.8584 23.0399 10.8349 22.6791 11.5736 21.9931C12.3123 21.3071 12.753 20.3519 12.799 19.3367V18.9967H16.1094C16.427 18.9949 16.7371 18.8981 17.0009 18.7184C17.2646 18.5387 17.4703 18.2841 17.5923 17.9864C17.7142 17.6887 17.747 17.3612 17.6865 17.0446C17.6261 16.7281 17.475 16.4368 17.2522 16.2069V16.2069ZM10.8285 19.3367C10.7739 19.8177 10.5385 20.2587 10.1714 20.5679C9.80436 20.8771 9.3339 21.0307 8.85804 20.9966C8.38219 21.0307 7.91173 20.8771 7.54465 20.5679C7.17758 20.2587 6.94221 19.8177 6.88757 19.3367V18.9967H10.8285V19.3367ZM2.46387 16.9969L3.62645 15.8169C3.81085 15.6309 3.95715 15.4096 4.05692 15.1659C4.15668 14.9222 4.20794 14.6609 4.20774 14.397V9.72729C4.20827 9.05273 4.35097 8.3861 4.62626 7.77212C4.90154 7.15814 5.30304 6.61103 5.80382 6.16751C6.29783 5.71322 6.88321 5.3733 7.51945 5.1713C8.15568 4.96929 8.82756 4.91002 9.48859 4.99758C10.628 5.18534 11.6622 5.78454 12.4008 6.68485C13.1395 7.58517 13.5328 8.72599 13.5084 9.89728V14.397C13.5069 14.6602 13.5566 14.9211 13.6546 15.1648C13.7527 15.4084 13.8972 15.6301 14.0798 15.8169L15.2522 16.9969H2.46387Z" fill="#333333"/>
<ellipse cx="16.4117" cy="4.33333" rx="4.58824" ry="4.33333" fill="#EB5757"/>
</svg>
