<svg width="30" height="22" viewBox="0 0 30 22" fill="none" xmlns="http://www.w3.org/2000/svg">
<path fill-rule="evenodd" clip-rule="evenodd" d="M0 3.66667C0 2.69421 0.395088 1.76157 1.09835 1.07394C1.80161 0.386308 2.75544 0 3.75 0H26.25C27.2446 0 28.1984 0.386308 28.9016 1.07394C29.6049 1.76157 30 2.69421 30 3.66667V18.3333C30 19.3058 29.6049 20.2384 28.9016 20.9261C28.1984 21.6137 27.2446 22 26.25 22H3.75C2.75544 22 1.80161 21.6137 1.09835 20.9261C0.395088 20.2384 0 19.3058 0 18.3333V3.66667ZM4.6875 5.5C4.43886 5.5 4.2004 5.59658 4.02459 5.76849C3.84877 5.94039 3.75 6.17355 3.75 6.41667V8.25C3.75 8.49312 3.84877 8.72627 4.02459 8.89818C4.2004 9.07009 4.43886 9.16667 4.6875 9.16667H8.4375C8.68614 9.16667 8.9246 9.07009 9.10041 8.89818C9.27623 8.72627 9.375 8.49312 9.375 8.25V6.41667C9.375 6.17355 9.27623 5.94039 9.10041 5.76849C8.9246 5.59658 8.68614 5.5 8.4375 5.5H4.6875ZM4.6875 11C4.43886 11 4.2004 11.0966 4.02459 11.2685C3.84877 11.4404 3.75 11.6736 3.75 11.9167C3.75 12.1598 3.84877 12.3929 4.02459 12.5648C4.2004 12.7368 4.43886 12.8333 4.6875 12.8333H14.0625C14.3111 12.8333 14.5496 12.7368 14.7254 12.5648C14.9012 12.3929 15 12.1598 15 11.9167C15 11.6736 14.9012 11.4404 14.7254 11.2685C14.5496 11.0966 14.3111 11 14.0625 11H4.6875ZM4.6875 14.6667C4.43886 14.6667 4.2004 14.7632 4.02459 14.9352C3.84877 15.1071 3.75 15.3402 3.75 15.5833C3.75 15.8264 3.84877 16.0596 4.02459 16.2315C4.2004 16.4034 4.43886 16.5 4.6875 16.5H6.5625C6.81114 16.5 7.0496 16.4034 7.22541 16.2315C7.40123 16.0596 7.5 15.8264 7.5 15.5833C7.5 15.3402 7.40123 15.1071 7.22541 14.9352C7.0496 14.7632 6.81114 14.6667 6.5625 14.6667H4.6875ZM10.3125 14.6667C10.0639 14.6667 9.8254 14.7632 9.64959 14.9352C9.47377 15.1071 9.375 15.3402 9.375 15.5833C9.375 15.8264 9.47377 16.0596 9.64959 16.2315C9.8254 16.4034 10.0639 16.5 10.3125 16.5H12.1875C12.4361 16.5 12.6746 16.4034 12.8504 16.2315C13.0262 16.0596 13.125 15.8264 13.125 15.5833C13.125 15.3402 13.0262 15.1071 12.8504 14.9352C12.6746 14.7632 12.4361 14.6667 12.1875 14.6667H10.3125ZM15.9375 14.6667C15.6889 14.6667 15.4504 14.7632 15.2746 14.9352C15.0988 15.1071 15 15.3402 15 15.5833C15 15.8264 15.0988 16.0596 15.2746 16.2315C15.4504 16.4034 15.6889 16.5 15.9375 16.5H17.8125C18.0611 16.5 18.2996 16.4034 18.4754 16.2315C18.6512 16.0596 18.75 15.8264 18.75 15.5833C18.75 15.3402 18.6512 15.1071 18.4754 14.9352C18.2996 14.7632 18.0611 14.6667 17.8125 14.6667H15.9375ZM21.5625 14.6667C21.3139 14.6667 21.0754 14.7632 20.8996 14.9352C20.7238 15.1071 20.625 15.3402 20.625 15.5833C20.625 15.8264 20.7238 16.0596 20.8996 16.2315C21.0754 16.4034 21.3139 16.5 21.5625 16.5H23.4375C23.6861 16.5 23.9246 16.4034 24.1004 16.2315C24.2762 16.0596 24.375 15.8264 24.375 15.5833C24.375 15.3402 24.2762 15.1071 24.1004 14.9352C23.9246 14.7632 23.6861 14.6667 23.4375 14.6667H21.5625Z" fill="#53B175"/>
</svg>
