<svg width="28" height="24" viewBox="0 0 28 24" fill="none" xmlns="http://www.w3.org/2000/svg">
<path fill-rule="evenodd" clip-rule="evenodd" d="M3.21218 3.87868C2.3335 4.75736 2.3335 6.17157 2.3335 9V15C2.3335 17.8284 2.3335 19.2426 3.21218 20.1213C4.09086 21 5.50507 21 8.3335 21H21.6668C22.5968 21 23.0618 21 23.4433 20.8978C24.4786 20.6204 25.2872 19.8117 25.5646 18.7765C25.6668 18.395 25.6668 17.93 25.6668 17H18.1668C16.51 17 15.1668 15.6569 15.1668 14C15.1668 12.3431 16.51 11 18.1668 11H25.6668V9C25.6668 6.17157 25.6668 4.75736 24.7881 3.87868C23.9095 3 22.4953 3 19.6668 3H8.3335C5.50507 3 4.09086 3 3.21218 3.87868ZM8.16683 7C7.61454 7 7.16683 7.44772 7.16683 8C7.16683 8.55228 7.61454 9 8.16683 9H11.6668C12.2191 9 12.6668 8.55228 12.6668 8C12.6668 7.44772 12.2191 7 11.6668 7H8.16683Z" fill="#53B175"/>
<path d="M19.8332 14H18.6665" stroke="#53B175" stroke-width="2" stroke-linecap="round"/>
</svg>
