<svg width="91" height="59" viewBox="0 0 91 59" fill="none" xmlns="http://www.w3.org/2000/svg">
<g filter="url(#filter0_d_315_124)">
<path d="M45.5518 19.4165L41.748 28.694M28.5567 4.77057L22.7165 19.0156C22.7165 19.0156 18.0126 28.1725 26.3036 31.5721L28.5567 4.77057ZM54.7904 15.5265L48.95 29.7709C48.95 29.7709 45.8717 39.5943 37.5811 36.1956L54.7904 15.5265ZM28.5388 4.78657L32.4055 14.0269L28.5388 4.78657ZM32.4055 14.0269L41.6733 10.1484L32.4055 14.0269ZM41.6733 10.1484L45.5518 19.4165L41.6733 10.1484ZM45.5518 19.4165L54.8197 15.5383L45.5518 19.4165ZM30.4722 9.40648L35.3061 7.38399L30.4722 9.40648ZM37.161 12.0364L35.2278 7.41645L37.161 12.0364ZM29.2072 6.38385L36.8709 3.17702L29.2072 6.38385ZM36.8709 3.17702L40.069 10.82L36.8709 3.17702ZM39.0343 7.22962L43.868 5.2065L39.0343 7.22962ZM45.7233 9.8595L43.7901 5.23943L45.7233 9.8595ZM37.7692 4.20698L45.4328 1L37.7692 4.20698ZM45.4328 1L48.6308 8.64255L45.4328 1ZM43.6112 14.7934L48.4449 12.7705L43.6112 14.7934ZM50.2995 17.4233L48.3673 12.8034L50.2995 17.4233ZM42.3461 11.7708L50.0099 8.56397L42.3461 11.7708ZM50.0099 8.56397L53.208 16.2068L50.0099 8.56397ZM26.3036 31.5719L36.9456 35.935L26.3036 31.5719ZM32.4055 14.0269L28.6017 23.3044L32.4055 14.0269Z" stroke="white" stroke-width="2" stroke-miterlimit="10" stroke-linecap="round" stroke-linejoin="round"/>
<path d="M72.4825 20.6853C72.5313 20.6054 72.2509 20.853 72.3002 20.768C74 17.835 85.5768 19.3017 85.5768 31.0354M64.2475 20.7682C64.2001 20.6968 64.2953 20.8445 64.2475 20.7682C62.4026 17.8352 49.8342 19.3018 49.8342 31.0355L64.2475 20.7682Z" stroke="white" stroke-width="2" stroke-miterlimit="10" stroke-linecap="round" stroke-linejoin="round"/>
<path d="M84.636 25.938C85.2264 27.7113 85.546 29.6086 85.546 31.5808C85.546 40.8051 78.5514 48.3958 69.5762 49.3377M51.9555 40.0292C50.6022 37.5144 49.8342 34.6373 49.8342 31.5808C49.8342 30.0647 50.0232 28.5929 50.3789 27.1876L51.9555 40.0292ZM52.5306 41.0202C52.3285 40.696 52.1367 40.3656 51.9556 40.0292L52.5306 41.0202ZM69.5762 49.3377C68.9564 49.4032 68.3274 49.4366 67.69 49.4366C67.1372 49.4366 65.5332 49.59 64.9928 49.5407L69.5762 49.3377Z" stroke="white" stroke-width="2" stroke-miterlimit="10" stroke-linecap="round" stroke-linejoin="round"/>
<path d="M70.2508 17.6559H66.5136M66.2078 20.0755C66.2078 20.0755 59.134 22.1839 58.3013 25.0831C58.3013 25.0831 66.8245 22.711 66.8245 24.1131C66.8245 25.5204 68.2266 27.6712 68.2266 27.6712L66.2078 20.0755ZM70.2508 20.0755C70.2508 20.0755 77.3194 22.1839 78.1574 25.0831C78.1574 25.0831 69.634 22.711 69.634 24.1131C69.634 25.5204 68.2266 27.6712 68.2266 27.6712L70.2508 20.0755ZM66.5136 20.0755V17.6559V20.0755ZM70.2508 20.0755V17.6559V20.0755Z" stroke="white" stroke-width="2" stroke-miterlimit="10" stroke-linecap="round" stroke-linejoin="round"/>
<path d="M79.0462 40.6305C77.6173 43.054 75.2154 44.8351 72.3777 45.4363" stroke="white" stroke-width="2" stroke-miterlimit="10" stroke-linecap="round" stroke-linejoin="round"/>
<path d="M22.7814 46.3194L24.5164 35.4456L24.7156 34.1963M53.4935 41.6115L67.8347 46.2377C67.8347 46.2377 69.2295 47.0634 69.0602 48.1252L53.4935 41.6115ZM24.5164 35.4456C25.1202 31.6614 29.7923 33.9601 29.7923 33.9601L35.3709 35.763L40.1834 37.3154L53.4935 41.6115L24.5164 35.4456ZM22.7814 46.3194C22.1775 50.1036 27.3331 49.3727 27.3331 49.3727L67.3073 49.543C67.3073 49.543 68.8897 49.1923 69.06 48.1252L22.7814 46.3194Z" stroke="white" stroke-width="2" stroke-miterlimit="10" stroke-linecap="round" stroke-linejoin="round"/>
<path d="M23.3451 40.2762C23.3451 40.2762 21.2813 23.4692 5.03491 24.8644M35.3716 35.7577L35.3706 35.763L34.7171 39.8596L35.3716 35.7577ZM40.1841 37.3103L40.1833 37.3154L39.6517 40.6468L40.1841 37.3103ZM44.9291 39.3857L44.6019 41.4367L44.9291 39.3857ZM22.7003 40.5042C21.2388 40.7994 16.0287 42.274 16.5395 48.2059L22.7003 40.5042ZM23.0734 40.441C23.0734 40.441 22.9375 40.4569 22.7115 40.5008L23.0734 40.441ZM23.1774 40.4576C23.1774 40.4576 23.1802 40.4739 23.176 40.5C23.1931 41.0953 23.2144 47.6535 16.6383 48.2216L23.1774 40.4576Z" stroke="white" stroke-width="2" stroke-miterlimit="10" stroke-linecap="round" stroke-linejoin="round"/>
<path d="M23.3104 40.4949C23.3104 40.4949 23.2619 40.498 23.1761 40.5002C23.0746 40.5 22.9195 40.502 22.7115 40.5008C22.7115 40.5008 22.7063 40.5 22.7002 40.5042C19.6644 40.4629 6.23589 39.484 5 25.0831" stroke="white" stroke-width="2" stroke-miterlimit="10" stroke-linecap="round" stroke-linejoin="round"/>
</g>
<defs>
<filter id="filter0_d_315_124" x="0" y="-0.000244141" width="90.5767" height="58.5504" filterUnits="userSpaceOnUse" color-interpolation-filters="sRGB">
<feFlood flood-opacity="0" result="BackgroundImageFix"/>
<feColorMatrix in="SourceAlpha" type="matrix" values="0 0 0 0 0 0 0 0 0 0 0 0 0 0 0 0 0 0 127 0" result="hardAlpha"/>
<feOffset dy="4"/>
<feGaussianBlur stdDeviation="2"/>
<feComposite in2="hardAlpha" operator="out"/>
<feColorMatrix type="matrix" values="0 0 0 0 0 0 0 0 0 0 0 0 0 0 0 0 0 0 0.25 0"/>
<feBlend mode="normal" in2="BackgroundImageFix" result="effect1_dropShadow_315_124"/>
<feBlend mode="normal" in="SourceGraphic" in2="effect1_dropShadow_315_124" result="shape"/>
</filter>
</defs>
</svg>
