<svg width="24" height="20" viewBox="0 0 24 20" fill="none" xmlns="http://www.w3.org/2000/svg">
<path d="M3.97938 8.81047L11.8035 16.6346L19.6276 8.81047C20.3193 8.11872 20.708 7.18051 20.708 6.20223C20.708 5.22396 20.3193 4.28574 19.6276 3.594C19.2851 3.25148 18.8784 2.97978 18.4309 2.79441C17.9834 2.60904 17.5037 2.51363 17.0193 2.51363C16.0411 2.51363 15.1029 2.90225 14.4111 3.594L11.8035 6.20162L9.19586 3.59523C8.50235 2.91276 7.56726 2.53198 6.59428 2.53582C5.62129 2.53967 4.68924 2.92783 4.00115 3.61576C3.31306 4.30369 2.92467 5.23565 2.9206 6.20864C2.91652 7.18162 3.29708 8.1168 3.97938 8.81047ZM10.9343 1.85435L11.8035 2.72356L12.6727 1.85435C13.2426 1.27943 13.9204 0.82274 14.6673 0.510495C15.4142 0.19825 16.2154 0.0366008 17.0249 0.0348282C17.8344 0.0330555 18.6363 0.191194 19.3846 0.500166C20.1328 0.809137 20.8127 1.26286 21.3851 1.83527C21.9575 2.40769 22.4112 3.08753 22.7202 3.83577C23.0292 4.58401 23.1873 5.38591 23.1855 6.19543C23.1838 7.00495 23.0221 7.80615 22.7099 8.55302C22.3976 9.2999 21.9409 9.97775 21.366 10.5477L12.6739 19.241C12.5597 19.3553 12.4241 19.446 12.2749 19.5078C12.1256 19.5697 11.9657 19.6015 11.8041 19.6015C11.6425 19.6015 11.4826 19.5697 11.3333 19.5078C11.184 19.446 11.0485 19.3553 10.9343 19.241L2.24097 10.5489C1.65823 9.98081 1.19409 9.30269 0.875475 8.55384C0.556858 7.80499 0.390106 7.00033 0.384892 6.18654C0.379678 5.37275 0.536105 4.56602 0.845101 3.81315C1.1541 3.06028 1.60951 2.37626 2.18492 1.80077C2.76033 1.22528 3.44428 0.769767 4.19711 0.460665C4.94993 0.151563 5.75664 -0.00497836 6.57044 0.000120674C7.38423 0.0052197 8.18892 0.171858 8.93781 0.490369C9.6867 0.80888 10.3649 1.27292 10.933 1.85558L10.9343 1.85435Z" fill="#333333"/>
</svg>
